<?xml version="1.0" encoding="utf-8"?>
<svg xmlns="http://www.w3.org/2000/svg" viewBox="1.218 0 496.594 396.409" xmlns:bx="https://boxy-svg.com" width="496.594px" height="396.409px"><defs><bx:export><bx:file format="svg"/><bx:file format="png"/></bx:export></defs><path fill="#0064FF" d="M 195.827 321.578 C 193.368 320.558 189.337 316.035 196.043 303.44 L 211.621 270.882 C 212.094 269.898 210.957 268.666 210.247 269.502 L 196.626 283.197 C 190.181 289.924 179.248 308.832 177.131 312.331 L 160.583 339.686 C 161.812 339.647 162.841 340.613 162.88 341.842 C 162.892 342.247 162.795 342.647 162.597 343.001 L 147.472 368.405 C 143.779 374.705 150.414 379.109 151.313 377.659 C 175.086 339.368 188.913 342.425 188.913 342.425 L 196.849 324.048 C 197.267 323.127 196.859 322.042 195.938 321.624 C 195.904 321.607 195.866 321.593 195.827 321.578 Z M 249.875 1.642 C 113.955 1.642 3.771 111.772 3.771 247.625 C 3.699 300.216 20.571 351.432 51.886 393.683 C 62.21 389.227 67.947 382.566 72.045 377.465 L 117.868 318.889 C 118.833 317.654 120.093 316.683 121.533 316.064 L 128.431 313.097 L 203.776 217.573 L 214.701 209.024 L 237.151 177.791 C 237.731 176.983 238.438 176.272 239.245 175.687 L 249.04 168.57 C 251.46 166.812 254.728 166.784 257.176 168.502 L 269.062 176.841 C 275.368 181.264 280.479 187.179 283.942 194.058 L 331.552 277.644 C 332.329 279.239 333.65 280.504 335.276 281.212 C 344.613 285.858 350.317 286.679 362.537 299.947 C 368.239 306.133 393.225 334.064 428.242 377.473 C 433.331 384.437 440.144 389.957 448.011 393.493 C 479.231 351.274 496.045 300.134 495.971 247.625 C 495.971 111.771 385.792 1.642 249.875 1.642 Z M 70.141 261.183 L 54.184 256.003 L 44.327 269.563 L 44.327 252.805 L 28.369 247.624 L 44.327 242.443 L 44.327 225.68 L 54.184 239.243 L 70.141 234.063 L 60.282 247.625 L 70.141 261.183 Z M 66.358 316.032 L 61.175 331.975 L 55.992 316.032 L 39.221 316.032 L 52.788 306.178 L 47.606 290.236 L 61.174 300.09 L 74.743 290.236 L 69.56 306.178 L 83.129 316.032 L 66.358 316.032 Z M 69.561 189.062 L 74.744 205.004 L 61.175 195.15 L 47.607 205.004 L 52.789 189.062 L 39.222 179.208 L 55.993 179.208 L 61.176 163.266 L 66.36 179.208 L 83.131 179.208 L 69.561 189.062 Z M 96.492 152.999 L 86.64 139.436 L 70.683 144.616 L 80.541 131.055 L 70.683 117.493 L 86.64 122.673 L 96.498 109.111 L 96.498 125.875 L 112.455 131.046 L 96.498 136.228 L 96.498 152.991 L 96.492 152.999 Z M 138.435 94.313 L 133.252 110.256 L 128.069 94.314 L 111.297 94.314 L 124.866 84.46 L 119.684 68.517 L 133.252 78.369 L 146.819 68.515 L 141.637 84.471 L 155.206 94.325 L 138.434 94.325 L 138.434 94.313 L 138.435 94.313 Z M 191.288 67.395 L 181.43 80.958 L 181.43 64.199 L 165.472 59.019 L 181.43 53.837 L 181.43 37.074 L 191.288 50.637 L 207.238 45.457 L 197.38 59.019 L 207.239 72.58 L 191.288 67.395 Z M 258.261 52.029 L 263.444 67.971 L 249.875 58.117 L 236.306 67.971 L 241.483 52.036 L 227.916 42.182 L 244.687 42.182 L 249.872 26.24 L 255.055 42.182 L 271.826 42.182 L 258.261 52.029 Z M 318.314 64.199 L 318.314 80.962 L 308.46 67.399 L 292.504 72.58 L 302.362 59.019 L 292.505 45.457 L 308.462 50.637 L 318.316 37.074 L 318.316 53.837 L 334.273 59.019 L 318.314 64.199 Z M 429.602 234.063 L 445.558 239.243 L 455.413 225.68 L 455.413 242.443 L 471.371 247.624 L 455.413 252.805 L 455.413 269.567 L 445.558 256.006 L 429.602 261.186 L 439.471 247.624 L 429.602 234.063 Z M 366.496 110.26 L 361.31 94.317 L 344.54 94.317 L 358.104 84.463 L 352.933 68.519 L 366.496 78.373 L 380.059 68.521 L 374.887 84.463 L 388.452 94.317 L 371.681 94.317 L 366.496 110.26 Z M 403.257 153.003 L 403.257 136.241 L 387.3 131.059 L 403.257 125.888 L 403.257 109.117 L 413.111 122.679 L 429.068 117.499 L 419.214 131.061 L 429.068 144.622 L 413.111 139.442 L 403.257 153.003 Z M 433.383 179.213 L 438.571 163.271 L 443.757 179.213 L 460.527 179.213 L 446.964 189.067 L 452.15 205.009 L 438.573 195.155 L 425.009 205.009 L 430.195 189.067 L 416.617 179.213 L 433.383 179.213 Z M 443.756 316.032 L 438.57 331.975 L 433.382 316.032 L 416.612 316.032 L 430.19 306.178 L 425.004 290.236 L 438.568 300.09 L 452.145 290.236 L 446.959 306.178 L 460.522 316.032 L 443.756 316.032 Z M 339.015 389.784 C 340.197 388.066 342.118 383.354 338.512 374.622 L 327.622 345.349 C 326.144 341.612 329.381 339.345 331.553 341.802 C 331.553 341.802 352.135 365.524 357.454 375.429 L 367.604 392.272 C 376.336 392.836 400.434 393.493 423.631 393.493 C 421.295 391.174 419.138 388.682 417.174 386.039 C 377.591 336.986 352.487 309.699 352.236 309.429 C 344.214 300.712 340.506 299.037 334.387 296.251 C 333.501 295.849 332.54 295.415 331.551 294.944 L 331.551 302.391 C 331.612 302.894 331.252 303.351 330.748 303.411 C 330.341 303.459 329.95 303.231 329.793 302.852 L 271.598 200.668 L 271.436 200.345 C 269.009 195.532 265.432 191.392 261.022 188.293 L 255.345 184.304 L 227.582 248.325 C 230.899 248.324 233.59 251.012 233.592 254.329 C 233.593 255.15 233.425 255.963 233.098 256.717 L 207.447 316.029 L 230.993 316.029 C 240.093 316.029 249.107 317.8 257.529 321.249 L 263.735 323.792 C 263.735 323.792 245.01 362.301 245.01 382.578 C 245.037 386.266 245.552 389.933 246.539 393.486 L 289.702 393.486 L 287.703 381.331 C 304.635 385.111 321.765 387.935 339.014 389.79 L 339.014 389.784 L 339.015 389.784 Z"/></svg>